<svg width="378" height="378" viewBox="0 0 378 378" fill="none" xmlns="http://www.w3.org/2000/svg">
<path d="M188.698 142.362C212.67 155.532 242.374 148.698 265.401 164.445C285.624 178.302 305.386 210.349 302.952 234.617C300.238 261.674 274.368 275.849 247.711 272.553C218.371 268.932 202.139 243.447 180.427 226.535C142.468 196.915 38.42 147.367 79.7203 84.7626C92.5723 65.341 132.429 48.1571 151.298 71.8425C169.45 94.6284 154.98 123.818 188.698 142.362Z" fill="#EF4949"/>
<path opacity="0.9" d="M188.698 142.362C212.67 155.532 242.374 148.698 265.401 164.445C285.624 178.302 305.386 210.349 302.952 234.617C300.238 261.674 274.368 275.849 247.711 272.553C218.371 268.932 202.139 243.447 180.427 226.535C142.468 196.915 38.42 147.367 79.7203 84.7626C92.5723 65.341 132.429 48.1571 151.298 71.8425C169.45 94.6284 154.98 123.818 188.698 142.362Z" fill="white"/>
<path d="M189 323.235C269.954 323.235 335.581 319.403 335.581 314.677C335.581 309.951 269.954 306.119 189 306.119C108.046 306.119 42.4192 309.951 42.4192 314.677C42.4192 319.403 108.046 323.235 189 323.235Z" fill="#F5F5F5"/>
<path d="M159.085 52.9199C162.613 49.78 167.182 47.7237 172.791 46.751C178.401 45.7782 184.33 46.3956 190.58 48.6032C196.809 50.8107 202.507 54.7973 207.673 60.5631C212.476 65.9256 215.722 71.5427 217.41 77.4143C219.095 82.844 219.249 88.6329 217.856 94.1446C216.533 99.2535 213.717 103.852 209.767 107.352C206.956 109.987 203.527 111.872 199.796 112.833C196.464 113.663 193.025 113.979 189.597 113.77C186.306 113.559 180.596 112.997 172.466 112.084C170.563 111.877 168.65 111.771 166.736 111.767C165.425 111.758 164.117 111.908 162.842 112.213C161.831 112.471 160.848 112.831 159.909 113.287C159.002 113.733 157.467 114.557 155.29 115.774C150.814 118.51 146.923 118.032 143.617 114.337C142.796 113.464 142.156 112.436 141.734 111.314C141.312 110.191 141.117 108.996 141.16 107.798C141.246 105.364 142.526 103.038 145.001 100.82C150.041 95.9901 156.793 93.3581 163.772 93.502C167.745 93.6346 171.709 93.9677 175.649 94.4999C179.837 95.0064 182.929 95.324 184.925 95.4298C186.907 95.543 188.894 95.3776 190.829 94.9384C192.76 94.5106 194.545 93.5854 196.008 92.2546C197.439 91.0121 198.586 89.4752 199.368 87.7491C200.151 86.0229 200.552 84.1481 200.544 82.2527C200.605 78.2207 199.093 74.4735 196.008 71.011C192.364 66.9437 188.657 64.8698 184.887 64.7891C181.117 64.7085 176.629 65.7921 171.423 68.0399C166.126 70.5246 161.905 70.0206 158.76 66.5279C157.865 65.5685 157.18 64.4328 156.749 63.1934C156.318 61.9541 156.151 60.6385 156.258 59.3308C156.28 58.1281 156.542 56.942 157.027 55.8414C157.513 54.7408 158.212 53.7477 159.085 52.9199ZM122.54 134.334C120.564 132.187 119.462 129.381 119.448 126.464C119.403 123.48 120.69 120.811 123.311 118.458C124.39 117.46 125.663 116.697 127.052 116.217C128.44 115.737 129.913 115.55 131.378 115.668C132.861 115.758 134.311 116.145 135.641 116.808C136.971 117.47 138.154 118.394 139.119 119.524C140.112 120.598 140.878 121.861 141.373 123.237C141.868 124.614 142.081 126.076 142 127.536C141.919 128.996 141.545 130.426 140.901 131.739C140.257 133.052 139.355 134.222 138.25 135.18C135.664 137.494 132.892 138.481 129.934 138.144C127.075 137.856 124.433 136.494 122.54 134.334Z" fill="#EF4949"/>
<g opacity="0.5">
<path d="M226.686 103.609C227.748 101.087 229.508 98.9207 231.759 97.3649C234.405 95.48 237.494 94.3131 240.725 93.978C244.49 93.573 248.295 94.1297 251.786 95.5959C255.083 96.8157 258.061 98.7672 260.495 101.304C262.604 103.499 264.069 106.232 264.728 109.204C265.336 111.982 265.099 114.878 264.048 117.52C263.335 119.458 262.144 121.184 260.586 122.54C259.19 123.739 257.62 124.718 255.929 125.443C254.306 126.133 251.435 127.237 247.318 128.754C246.355 129.107 245.413 129.516 244.498 129.979C243.868 130.288 243.279 130.674 242.744 131.128C242.319 131.492 241.934 131.9 241.595 132.345C241.27 132.776 240.733 133.54 239.985 134.613C238.473 137.002 236.494 137.708 234.05 136.73C233.446 136.509 232.893 136.17 232.42 135.734C231.948 135.299 231.567 134.774 231.298 134.19C231.028 133.506 230.904 132.774 230.932 132.04C230.961 131.306 231.142 130.586 231.464 129.926C232.718 126.403 235.317 123.521 238.692 121.912C240.624 121.012 242.599 120.21 244.611 119.508C246.736 118.752 248.293 118.155 249.276 117.732C250.251 117.309 251.162 116.751 251.982 116.076C252.804 115.405 253.437 114.533 253.819 113.543C254.206 112.605 254.386 111.595 254.346 110.581C254.305 109.567 254.046 108.573 253.585 107.669C252.573 105.679 250.832 104.157 248.724 103.42C246.002 102.347 243.734 102.244 241.92 103.111C239.717 104.283 237.789 105.912 236.265 107.888C234.32 110.353 232.173 111.109 229.824 110.156C229.165 109.91 228.565 109.53 228.061 109.039C227.558 108.548 227.162 107.958 226.898 107.306C226.619 106.735 226.457 106.114 226.421 105.479C226.385 104.844 226.475 104.209 226.686 103.609ZM228.75 151.389C227.29 150.835 226.087 149.757 225.379 148.365C225.016 147.633 224.819 146.829 224.804 146.012C224.788 145.195 224.953 144.385 225.288 143.64C225.56 142.9 225.984 142.226 226.532 141.66C227.08 141.093 227.74 140.648 228.471 140.351C229.203 140.039 229.991 139.877 230.788 139.877C231.584 139.877 232.372 140.039 233.105 140.351C233.838 140.627 234.508 141.048 235.076 141.588C235.644 142.127 236.097 142.776 236.409 143.494C236.722 144.213 236.887 144.987 236.894 145.77C236.902 146.553 236.752 147.33 236.454 148.055C236.193 148.831 235.763 149.54 235.196 150.13C234.629 150.721 233.938 151.179 233.173 151.472C231.741 152.004 230.161 151.974 228.75 151.389Z" fill="#EF4949"/>
</g>
<g opacity="0.1">
<path d="M277.535 99.1566C276.851 98.0806 276.487 96.8328 276.484 95.558C276.459 94.0476 276.829 92.5569 277.558 91.2337C278.399 89.6926 279.619 88.3915 281.103 87.4537C282.442 86.5112 283.978 85.8856 285.594 85.6242C286.994 85.3972 288.43 85.5593 289.744 86.0929C290.975 86.5913 292.029 87.4471 292.768 88.5499C293.324 89.3352 293.672 90.2478 293.781 91.2034C293.868 92.054 293.827 92.9127 293.66 93.7512C293.494 94.5626 293.156 95.9536 292.647 97.9243C292.533 98.388 292.442 98.8574 292.375 99.3304C292.287 99.9128 292.334 100.508 292.511 101.069C292.594 101.311 292.746 101.719 292.972 102.294C293.11 102.529 293.2 102.79 293.237 103.06C293.274 103.331 293.256 103.606 293.186 103.869C293.116 104.133 292.994 104.38 292.827 104.596C292.661 104.812 292.453 104.993 292.216 105.129C291.724 105.474 291.115 105.61 290.523 105.507C290.189 105.432 289.874 105.287 289.6 105.083C289.325 104.878 289.096 104.618 288.928 104.32C288.395 103.566 288.02 102.712 287.824 101.81C287.667 101.028 287.65 100.225 287.771 99.4363C287.934 98.458 288.149 97.489 288.414 96.5332C288.686 95.5126 288.867 94.7642 288.966 94.2652C289.061 93.7672 289.089 93.2587 289.049 92.7532C289.006 92.2601 288.836 91.7863 288.557 91.3773C288.299 90.982 287.959 90.647 287.56 90.3952C287.161 90.1434 286.712 89.9807 286.244 89.9182C285.205 89.7767 284.152 90.0481 283.311 90.6742C282.833 90.9394 282.416 91.3007 282.086 91.7353C281.755 92.17 281.519 92.6684 281.391 93.1993C281.259 94.3545 281.375 95.5245 281.731 96.6315C282.162 98.0301 281.882 99.0507 280.907 99.7084C280.639 99.8951 280.336 100.024 280.016 100.088C279.696 100.152 279.366 100.149 279.047 100.079C278.746 100.034 278.457 99.9299 278.197 99.7714C277.937 99.613 277.712 99.4039 277.535 99.1566ZM296.397 110.996C295.798 111.405 295.069 111.58 294.348 111.487C293.968 111.433 293.605 111.294 293.286 111.081C292.967 110.867 292.699 110.585 292.504 110.255C292.293 109.955 292.146 109.615 292.073 109.256C292 108.897 292.003 108.526 292.08 108.168C292.154 107.804 292.299 107.459 292.508 107.153C292.717 106.846 292.986 106.585 293.298 106.384C293.597 106.175 293.936 106.03 294.293 105.955C294.65 105.881 295.019 105.881 295.377 105.953C295.736 106.019 296.078 106.159 296.381 106.363C296.684 106.567 296.942 106.832 297.138 107.14C297.366 107.446 297.524 107.798 297.601 108.171C297.678 108.545 297.672 108.931 297.584 109.302C297.414 109.995 296.991 110.6 296.397 110.996Z" fill="#EF4949"/>
</g>
<path d="M140.457 309.672L134.742 308.19L138.152 295.119L143.867 296.601L140.457 309.672Z" fill="#FFC3BD"/>
<path d="M134.681 306.679L141.062 308.697C141.115 308.711 141.165 308.734 141.209 308.767C141.252 308.8 141.289 308.841 141.317 308.888C141.344 308.936 141.362 308.988 141.369 309.042C141.376 309.096 141.372 309.151 141.357 309.204L140.011 314.156C139.917 314.416 139.726 314.629 139.478 314.752C139.23 314.874 138.944 314.896 138.681 314.813C136.473 314.057 135.452 313.619 132.633 312.727C130.901 312.183 126.728 310.95 124.317 310.194C121.905 309.438 122.805 307.17 123.855 307.314C128.709 307.82 131.529 307.412 133.547 306.709C133.912 306.574 134.31 306.564 134.681 306.679Z" fill="black"/>
<path opacity="0.2" d="M143.867 296.609L138.151 295.127L136.397 301.863L142.113 303.345L143.867 296.609Z" fill="black"/>
<path d="M158.269 162.94C158.269 162.94 147.806 212.663 145.023 228.939C141.999 246.766 135.354 297.803 135.354 297.803L145.069 301.334C145.069 301.334 160.272 247.212 162.578 230.073C167.409 213.32 179.648 162.94 179.648 162.94H158.269Z" fill="#EF4949"/>
<path opacity="0.3" d="M171.703 179.171C168.308 187.321 167.076 202.161 167.666 211.037C170.357 200.559 173.343 188.591 175.657 179.217C174.908 176.639 173.88 173.932 171.703 179.171Z" fill="black"/>
<path d="M144.872 302.483L134.455 299.474L134.848 295.066L147.246 298.552L144.872 302.483Z" fill="black"/>
<path d="M132.338 306.996C132.853 307.144 133.383 307.238 133.918 307.276C133.945 307.281 133.973 307.276 133.997 307.264C134.021 307.252 134.041 307.232 134.054 307.208C134.068 307.187 134.076 307.162 134.076 307.136C134.076 307.111 134.068 307.085 134.054 307.064C133.91 306.883 132.663 305.318 131.884 305.363C131.795 305.367 131.707 305.393 131.631 305.439C131.554 305.485 131.49 305.55 131.446 305.628C131.369 305.737 131.322 305.864 131.31 305.997C131.298 306.129 131.321 306.263 131.378 306.384C131.612 306.699 131.954 306.917 132.338 306.996ZM133.623 306.996C132.534 306.868 131.801 306.603 131.62 306.24C131.584 306.162 131.571 306.075 131.582 305.99C131.593 305.904 131.627 305.824 131.68 305.756C131.701 305.718 131.732 305.685 131.769 305.662C131.806 305.638 131.848 305.624 131.892 305.62C132.3 305.605 133.101 306.369 133.623 306.981V306.996Z" fill="#EF4949"/>
<path d="M133.887 307.276H133.956C133.978 307.273 133.999 307.264 134.017 307.251C134.036 307.238 134.051 307.221 134.061 307.201C134.061 307.133 134.757 305.598 134.364 304.887C134.31 304.797 134.238 304.718 134.152 304.657C134.066 304.596 133.968 304.553 133.865 304.532C133.751 304.499 133.63 304.504 133.519 304.547C133.409 304.589 133.315 304.666 133.252 304.766C132.912 305.326 133.373 306.732 133.827 307.231C133.842 307.252 133.863 307.268 133.887 307.276ZM133.887 304.812C133.94 304.828 133.988 304.854 134.029 304.889C134.071 304.924 134.105 304.967 134.129 305.016C134.266 305.64 134.189 306.293 133.91 306.868C133.555 306.309 133.283 305.265 133.509 304.903C133.509 304.834 133.623 304.759 133.819 304.797L133.887 304.812Z" fill="#EF4949"/>
<path d="M166.365 120.355C165.859 121.58 165.375 122.668 164.853 123.787C164.332 124.906 163.772 126.002 163.205 127.098C162.056 129.283 160.847 131.438 159.516 133.539C156.869 137.908 153.667 141.915 149.99 145.462L149.854 145.598C149.661 145.771 149.448 145.921 149.219 146.044C148.59 146.383 147.898 146.591 147.186 146.656C146.778 146.685 146.369 146.685 145.961 146.656C145.351 146.617 144.745 146.533 144.147 146.407C143.073 146.18 142.12 145.9 141.183 145.605C139.323 145.016 137.592 144.297 135.891 143.572C134.19 142.846 132.512 142.06 130.864 141.205C129.216 140.351 127.598 139.497 125.995 138.529C125.623 138.302 125.345 137.95 125.209 137.536C125.074 137.122 125.091 136.674 125.257 136.271C125.423 135.868 125.726 135.538 126.114 135.339C126.502 135.141 126.947 135.087 127.371 135.188C130.879 136.034 134.379 136.979 137.826 137.818C139.543 138.249 141.259 138.627 142.907 138.945C143.683 139.102 144.468 139.216 145.258 139.285C145.555 139.302 145.853 139.302 146.15 139.285C146.263 139.285 146.309 139.285 146.278 139.285C146.01 139.292 145.748 139.374 145.522 139.519L144.766 140.102C146.229 138.483 147.585 136.77 148.826 134.976C150.096 133.139 151.298 131.196 152.455 129.245C153.612 127.295 154.723 125.246 155.774 123.197C156.825 121.149 157.868 119.039 158.798 117.066L158.843 116.968C159.289 115.965 160.115 115.181 161.14 114.788C162.164 114.394 163.303 114.424 164.305 114.87C165.308 115.316 166.092 116.142 166.485 117.167C166.879 118.191 166.849 119.33 166.403 120.332L166.365 120.355Z" fill="#FFC3BD"/>
<path d="M165.201 112.356C160.332 112.492 156.991 117.777 153.801 124.361C156.246 128.589 159.75 132.106 163.969 134.567C163.969 134.567 176.76 112.031 165.201 112.356Z" fill="#E0E0E0"/>
<path d="M125.753 138.559L121.368 137.44L124.785 133.048C124.785 133.048 128.565 133.645 130.002 136.828L128.444 137.939C128.067 138.23 127.631 138.435 127.166 138.542C126.702 138.649 126.22 138.655 125.753 138.559Z" fill="#FFC3BD"/>
<path d="M120.302 132.95L121.149 132.194C121.495 131.891 121.938 131.719 122.398 131.709C122.858 131.7 123.308 131.853 123.666 132.141L124.785 133.041L121.368 137.433L119.97 135.256C119.738 134.896 119.644 134.465 119.705 134.041C119.766 133.617 119.978 133.23 120.302 132.95Z" fill="#FFC3BD"/>
<path d="M191.616 308.992H185.636L184.207 295.671H190.187L191.616 308.992Z" fill="#FFC3BD"/>
<path d="M185.114 308.327H191.835C191.946 308.321 192.055 308.358 192.139 308.432C192.222 308.505 192.273 308.609 192.281 308.72L192.606 313.831C192.6 314.105 192.487 314.367 192.29 314.559C192.094 314.751 191.83 314.859 191.555 314.859C189.219 314.813 188.1 314.685 185.144 314.685C183.33 314.685 178.34 314.866 175.808 314.866C173.275 314.866 173.366 312.477 174.432 312.266C179.202 311.29 182.393 309.952 184.086 308.682C184.38 308.454 184.742 308.329 185.114 308.327Z" fill="black"/>
<path opacity="0.2" d="M190.187 295.671H184.207L184.948 302.543H190.928L190.187 295.671Z" fill="black"/>
<path d="M169.956 162.94C169.956 162.94 171.279 212.927 172.224 229.4C173.283 247.438 182.241 300.88 182.241 300.88H193.203C193.203 300.88 190.799 246.758 188.985 229.06C189.741 209.676 190.24 162.925 190.24 162.925L169.956 162.94Z" fill="#EF4949"/>
<path d="M193.642 300.88H181.213L180.624 296.881L193.974 297.108L193.642 300.88Z" fill="black"/>
<path d="M182.997 309.325C183.535 309.313 184.069 309.245 184.592 309.121C184.618 309.116 184.641 309.103 184.659 309.084C184.677 309.065 184.688 309.041 184.691 309.015C184.698 308.99 184.697 308.963 184.687 308.938C184.678 308.913 184.66 308.893 184.638 308.879C184.449 308.758 182.755 307.639 182.022 307.919C181.94 307.949 181.867 308 181.811 308.066C181.754 308.132 181.715 308.211 181.697 308.297C181.65 308.426 181.641 308.566 181.672 308.701C181.703 308.835 181.772 308.957 181.871 309.053C182.202 309.275 182.601 309.371 182.997 309.325ZM184.207 308.932C183.133 309.136 182.347 309.098 182.067 308.834C182.01 308.77 181.97 308.693 181.953 308.609C181.936 308.525 181.941 308.438 181.969 308.357C181.976 308.315 181.994 308.276 182.02 308.243C182.047 308.21 182.081 308.184 182.12 308.168C182.513 308.017 183.511 308.501 184.207 308.932Z" fill="#EF4949"/>
<path d="M184.555 309.128H184.623C184.643 309.116 184.66 309.099 184.673 309.08C184.686 309.06 184.695 309.038 184.698 309.015C184.698 308.947 184.834 307.291 184.23 306.747C184.152 306.673 184.059 306.618 183.956 306.586C183.854 306.555 183.745 306.547 183.64 306.565C183.523 306.567 183.41 306.607 183.318 306.679C183.227 306.752 183.162 306.853 183.133 306.966C182.997 307.593 183.889 308.795 184.487 309.136L184.555 309.128ZM183.708 306.792C183.764 306.79 183.82 306.8 183.872 306.821C183.924 306.842 183.971 306.873 184.01 306.913C184.341 307.462 184.48 308.106 184.403 308.742C183.882 308.319 183.284 307.404 183.375 306.996C183.375 306.913 183.443 306.822 183.647 306.8L183.708 306.792Z" fill="#EF4949"/>
<path d="M160.786 116.205C161.108 115.226 161.689 114.352 162.466 113.675C163.242 112.998 164.187 112.543 165.201 112.357C166.678 112.012 168.175 111.76 169.684 111.601C174.217 111.351 178.759 111.351 183.292 111.601C185.666 111.707 188.085 111.986 190.013 112.258H190.081C190.576 112.316 191.055 112.474 191.487 112.722C191.919 112.971 192.296 113.305 192.596 113.704C192.895 114.102 193.11 114.558 193.227 115.043C193.345 115.527 193.362 116.031 193.279 116.522C191.77 124.226 190.782 132.023 190.323 139.86C189.854 151.245 190.489 160.181 190.262 162.926H158.268C156.326 135.158 158.835 122.533 160.786 116.205Z" fill="#E0E0E0"/>
<path d="M185.462 94.658C186.02 95.0611 186.464 95.6021 186.75 96.2281C187.036 96.8542 187.155 97.5438 187.095 98.2296C187.035 98.9154 186.798 99.5738 186.407 100.14C186.016 100.707 185.484 101.162 184.865 101.462C186.157 103.602 182.718 107.382 179.255 105.008C175.793 102.634 180.684 92.6395 185.462 94.658Z" fill="black"/>
<path d="M171.143 92.3598C170.668 92.3738 170.198 92.2643 169.778 92.0419C169.358 91.8194 169.003 91.4918 168.747 91.0909C168.492 90.6901 168.345 90.2298 168.321 89.7551C168.297 89.2805 168.397 88.8078 168.611 88.3832C167 87.7558 167.288 84.2404 170.191 84.0892C173.094 83.938 174.591 91.4753 171.143 92.3598Z" fill="black"/>
<path d="M170.198 114.571C169.982 114.373 169.821 114.121 169.731 113.842C169.641 113.562 169.625 113.264 169.686 112.976C169.746 112.689 169.88 112.422 170.074 112.202C170.269 111.982 170.517 111.816 170.795 111.721C173.714 110.648 174.243 108.531 174.008 106.225C173.941 105.577 173.835 104.933 173.691 104.297L178.643 100.343L182.287 97.4404C181.379 101.22 180.366 107.805 182.287 111.139C182.502 111.488 182.585 111.902 182.521 112.307C182.457 112.712 182.251 113.081 181.939 113.347C180.684 114.458 178.113 115.894 173.88 115.668C171.937 115.569 170.856 115.123 170.198 114.571Z" fill="#FFC3BD"/>
<path d="M159.145 116.34C159.506 115.252 160.142 114.275 160.991 113.504C161.84 112.733 162.873 112.195 163.991 111.941C165.426 111.713 166.872 111.561 168.323 111.487C168.475 111.465 168.629 111.481 168.773 111.534C168.916 111.587 169.045 111.675 169.146 111.79C169.247 111.904 169.318 112.043 169.353 112.192C169.387 112.341 169.384 112.496 169.344 112.644C166.811 122.048 163.198 140.865 164.316 164.173C164.322 164.318 164.297 164.462 164.244 164.597C164.192 164.733 164.112 164.856 164.01 164.959C163.908 165.062 163.786 165.144 163.652 165.198C163.517 165.253 163.373 165.279 163.228 165.276H156.877C156.602 165.281 156.335 165.18 156.131 164.995C155.928 164.809 155.802 164.553 155.781 164.278C153.869 135.8 157.248 121.61 159.145 116.34Z" fill="black"/>
<path d="M189.839 111.692C187.806 111.4 185.76 111.214 183.708 111.132C183.337 111.105 182.968 111.21 182.666 111.429C182.364 111.647 182.15 111.965 182.06 112.327C179.709 122.684 177.615 145.696 177.524 164.211C177.527 164.352 177.558 164.491 177.614 164.62C177.671 164.749 177.753 164.866 177.854 164.963C177.956 165.061 178.076 165.138 178.208 165.189C178.339 165.24 178.479 165.265 178.62 165.262H189.96C190.241 165.268 190.513 165.164 190.718 164.971C190.923 164.779 191.045 164.514 191.056 164.234C191.132 160.506 190.618 151.775 191.056 140.934C191.475 133.208 192.446 125.523 193.959 117.936C194.352 115.812 192.084 112.009 189.839 111.692Z" fill="black"/>
<path d="M193.823 114.979C196.25 118.638 198.458 122.305 200.544 126.153C201.572 128.081 202.585 130.039 203.5 132.095C203.954 133.123 204.4 134.174 204.816 135.286C205.274 136.488 205.628 137.727 205.874 138.99C206.06 139.91 206.101 140.854 205.995 141.787C205.871 142.542 205.676 143.284 205.413 144.002C204.981 145.173 204.453 146.306 203.833 147.389C202.72 149.353 201.48 151.242 200.121 153.044C197.506 156.534 194.646 159.833 191.563 162.917C191.207 163.274 190.732 163.488 190.228 163.518C189.725 163.547 189.228 163.391 188.832 163.078C188.437 162.766 188.17 162.319 188.082 161.822C187.994 161.325 188.092 160.814 188.357 160.385V160.339C190.557 156.794 192.78 153.18 194.791 149.597C195.789 147.812 196.741 145.998 197.505 144.244C198.269 142.49 198.828 140.57 198.435 140.517C198.194 139.713 197.901 138.925 197.558 138.158C197.18 137.296 196.749 136.404 196.295 135.52C195.373 133.743 194.383 131.936 193.347 130.16C191.276 126.592 189.068 122.993 186.883 119.508V119.462C186.289 118.542 186.084 117.423 186.315 116.352C186.545 115.281 187.191 114.345 188.112 113.751C189.032 113.156 190.151 112.952 191.222 113.182C192.293 113.413 193.229 114.059 193.823 114.979Z" fill="#FFC3BD"/>
<path d="M189.121 111.593C193.989 111.503 196.567 115.623 199.758 122.177C196.144 128.868 189.249 131.763 189.249 131.763C189.249 131.763 179.55 111.76 189.121 111.593Z" fill="#E0E0E0"/>
<path d="M186.626 160.189L183.821 161.081L189.015 165.027C189.015 165.027 193.264 162.82 191.933 160.816L191.071 160.431C189.668 159.812 188.088 159.726 186.626 160.189Z" fill="#FFC3BD"/>
<path d="M182.249 164.544L185.401 167.711C185.503 167.811 185.625 167.888 185.758 167.938C185.891 167.988 186.034 168.009 186.176 168.002C186.318 167.994 186.457 167.957 186.584 167.892C186.711 167.828 186.823 167.738 186.913 167.628L189.008 165.027L183.814 161.081L182.196 163.296C182.047 163.473 181.97 163.699 181.979 163.93C181.989 164.161 182.085 164.38 182.249 164.544Z" fill="#FFC3BD"/>
<path opacity="0.2" d="M173.691 104.328C173.835 104.964 173.941 105.607 174.008 106.256C175.883 106.732 178.544 104.585 178.794 102.763C178.826 101.964 178.775 101.163 178.643 100.374L173.691 104.328Z" fill="black"/>
<path d="M185.394 92.0726C184.116 97.6519 183.663 100.978 180.23 103.466C179.108 104.287 177.787 104.796 176.404 104.94C175.02 105.085 173.623 104.861 172.355 104.29C171.086 103.719 169.992 102.822 169.182 101.691C168.373 100.559 167.879 99.2334 167.749 97.8484C167.31 92.6169 169.472 84.369 175.581 82.9023C181.689 81.4357 186.671 86.4858 185.394 92.0726Z" fill="#FFC3BD"/>
<path d="M182.808 96.9567C181.19 97.0398 179.467 91.332 183.035 88.5802C182.468 88.8902 180.918 88.3232 181.19 87.2572C180.14 87.6957 175.543 87.5067 176.654 85.6394C174.318 86.2442 169.223 85.2311 168.679 83.0009C168.134 80.7707 170.765 80.6951 171.173 80.99C170.017 79.3721 170.039 76.9983 173.109 76.1364C176.178 75.2746 180.805 79.7123 180.805 79.7123C180.321 78.5405 182.022 77.5955 183.783 78.601C185.545 79.6065 186.369 82.4642 186.369 82.4642C186.369 81.6023 190.482 82.759 188.531 86.3727C190.55 87.1287 191.472 88.2022 191.343 90.0695C191.215 91.9368 189.937 92.0427 189.937 92.0427C190.208 92.715 190.245 93.4584 190.044 94.1545C189.842 94.8506 189.414 95.4592 188.826 95.8832C186.732 97.569 184.902 95.5883 182.808 96.9567Z" fill="black"/>
<path d="M186.014 97.3879C185.303 98.4283 184.253 99.1898 183.043 99.5424C181.485 99.9582 180.956 98.5672 181.591 97.1157C182.166 95.8078 183.663 94.0085 185.129 94.2353C186.596 94.4621 186.891 96.0875 186.014 97.3879Z" fill="#FFC3BD"/>
<path d="M176.148 91.8457C176.072 92.2993 175.755 92.6395 175.445 92.6017C175.135 92.5639 174.938 92.1556 175.014 91.6945C175.09 91.2333 175.407 90.9385 175.717 90.9385C176.027 90.9385 176.186 91.3845 176.148 91.8457Z" fill="black"/>
<path d="M170.614 90.8408C170.538 91.302 170.229 91.6422 169.919 91.5968C169.609 91.5514 169.412 91.1508 169.488 90.6896C169.563 90.2284 169.873 89.9336 170.183 89.9336C170.493 89.9336 170.69 90.3872 170.614 90.8408Z" fill="black"/>
<path d="M172.799 91.8691C171.993 93.1995 171.009 94.4129 169.873 95.4753C170.167 95.7517 170.517 95.9621 170.899 96.0925C171.281 96.2229 171.686 96.2702 172.088 96.2313L172.799 91.8691Z" fill="#ED847E"/>
<path d="M173.071 98.4838C173.621 98.5459 174.178 98.4977 174.709 98.3419C175.24 98.1861 175.734 97.926 176.163 97.5766C176.188 97.55 176.202 97.5148 176.202 97.4783C176.202 97.4418 176.188 97.4067 176.163 97.38C176.136 97.3566 176.101 97.3438 176.065 97.3438C176.029 97.3438 175.994 97.3566 175.967 97.38C175.495 97.7545 174.944 98.017 174.356 98.148C173.768 98.2789 173.158 98.2748 172.572 98.136C172.554 98.1316 172.536 98.1308 172.517 98.1338C172.499 98.1368 172.482 98.1434 172.466 98.1533C172.451 98.1632 172.437 98.1762 172.427 98.1914C172.417 98.2066 172.409 98.2238 172.406 98.2419C172.401 98.2593 172.401 98.2775 172.404 98.2952C172.407 98.3129 172.413 98.3298 172.423 98.3448C172.433 98.3598 172.446 98.3725 172.462 98.3821C172.477 98.3917 172.494 98.398 172.512 98.4006C172.696 98.442 172.883 98.4698 173.071 98.4838Z" fill="black"/>
<path d="M176.375 88.701C176.329 88.7132 176.288 88.7366 176.254 88.769C176.227 88.7938 176.206 88.8236 176.192 88.8568C176.178 88.89 176.17 88.9257 176.17 88.9618C176.17 88.9979 176.178 89.0337 176.192 89.0668C176.206 89.1 176.227 89.1299 176.254 89.1546C176.548 89.4838 176.918 89.7368 177.331 89.8922C177.744 90.0475 178.189 90.1005 178.628 90.0467C178.664 90.0431 178.699 90.032 178.731 90.0142C178.763 89.9963 178.791 89.9721 178.813 89.9429C178.835 89.9138 178.85 89.8805 178.859 89.845C178.867 89.8095 178.868 89.7726 178.862 89.7367C178.856 89.7004 178.842 89.6658 178.822 89.6347C178.802 89.6037 178.777 89.5769 178.747 89.5558C178.716 89.5347 178.682 89.5198 178.646 89.512C178.61 89.5041 178.573 89.5034 178.537 89.5099C178.19 89.5405 177.841 89.4879 177.519 89.3564C177.197 89.2249 176.911 89.0183 176.685 88.7539C176.643 88.7175 176.592 88.6933 176.537 88.684C176.482 88.6747 176.426 88.6805 176.375 88.701Z" fill="black"/>
<path d="M169.049 87.3325C169.091 87.3511 169.136 87.3607 169.181 87.3607C169.227 87.3607 169.272 87.3511 169.314 87.3325C169.636 87.1716 169.991 87.0834 170.351 87.0743C170.712 87.0651 171.07 87.1352 171.4 87.2796C171.465 87.3161 171.541 87.3263 171.613 87.308C171.685 87.2897 171.747 87.2443 171.786 87.1813C171.819 87.1157 171.825 87.0401 171.804 86.9698C171.783 86.8995 171.736 86.8399 171.672 86.8033C171.264 86.6075 170.817 86.5059 170.365 86.5059C169.912 86.5059 169.465 86.6075 169.057 86.8033C169.024 86.8177 168.994 86.8389 168.97 86.8655C168.945 86.8921 168.927 86.9236 168.915 86.9578C168.904 86.992 168.9 87.0283 168.903 87.0642C168.907 87.1001 168.918 87.1348 168.936 87.1662C168.953 87.2332 168.993 87.2921 169.049 87.3325Z" fill="black"/>
</svg>
