<svg width="24" height="15" viewBox="0 0 24 15" fill="none" xmlns="http://www.w3.org/2000/svg">
<path fill-rule="evenodd" clip-rule="evenodd" d="M24 2.16634C24 1.42997 23.403 0.833008 22.6667 0.833008H1.33333C0.596931 0.833008 0 1.42997 0 2.16634C0 2.90271 0.596931 3.49967 1.33333 3.49967H22.6667C23.403 3.49967 24 2.90271 24 2.16634ZM24 7.49967C24 6.76327 23.403 6.16634 22.6667 6.16634H1.33333C0.596931 6.16634 0 6.76327 0 7.49967C0 8.23607 0.596931 8.83301 1.33333 8.83301H22.6667C23.403 8.83301 24 8.23607 24 7.49967ZM24 12.833C24 12.0966 23.403 11.4997 22.6667 11.4997H12C11.2636 11.4997 10.6667 12.0966 10.6667 12.833C10.6667 13.5694 11.2636 14.1663 12 14.1663H22.6667C23.403 14.1663 24 13.5694 24 12.833Z" fill="#363565"/>
</svg>
